<svg id="visual" viewBox="0 0 900 600" width="900" height="600" xmlns="http://www.w3.org/2000/svg" xmlns:xlink="http://www.w3.org/1999/xlink" version="1.1"><rect width="900" height="600" fill="#100e0e"></rect><g><g transform="translate(707 403)"><path d="M87.7 -26.4C101.6 14.1 92.3 64.2 62.2 86.4C32 108.5 -19.1 102.6 -56.1 76C-93 49.4 -115.8 2.2 -104 -35.3C-92.3 -72.8 -46.2 -100.6 -4.6 -99.1C36.9 -97.6 73.9 -66.8 87.7 -26.4Z" stroke="#413b37" fill="none" stroke-width="20"></path></g><g transform="translate(414 91)"><path d="M53.2 -16.8C60.2 4.1 51 30.8 33.3 42.9C15.6 55.1 -10.5 52.8 -29.7 39.2C-48.8 25.7 -61 1 -54.9 -18.7C-48.8 -38.4 -24.4 -53 -0.6 -52.8C23.1 -52.6 46.3 -37.6 53.2 -16.8Z" stroke="#413b37" fill="none" stroke-width="20"></path></g><g transform="translate(757 108)"><path d="M70.1 -22.2C79.4 5.9 67.6 41.4 42.3 60.3C17 79.2 -21.9 81.4 -46.8 63.5C-71.7 45.6 -82.7 7.6 -72.5 -21.6C-62.4 -50.8 -31.2 -71.2 -0.4 -71.1C30.4 -71 60.7 -50.3 70.1 -22.2Z" stroke="#413b37" fill="none" stroke-width="20"></path></g><g transform="translate(452 590)"><path d="M59.1 -21.8C65.6 0.8 52.3 27.3 32.8 40.3C13.2 53.4 -12.6 53.1 -32 40C-51.4 26.8 -64.4 0.8 -58 -21.6C-51.6 -44.1 -25.8 -63 0.2 -63.1C26.3 -63.1 52.6 -44.4 59.1 -21.8Z" stroke="#413b37" fill="none" stroke-width="20"></path></g><g transform="translate(69 401)"><path d="M65.6 -21.4C73.6 3.2 60.7 34.5 37.7 51.1C14.6 67.7 -18.6 69.4 -40.6 53.9C-62.6 38.3 -73.5 5.5 -64.9 -20C-56.3 -45.5 -28.1 -63.5 0.3 -63.6C28.8 -63.7 57.7 -45.9 65.6 -21.4Z" stroke="#413b37" fill="none" stroke-width="20"></path></g><g transform="translate(21 34)"><path d="M60.5 -18.7C68.8 5.9 59.3 37.2 38.9 51.5C18.5 65.8 -12.7 63.2 -33.2 47.8C-53.8 32.4 -63.6 4.3 -56.3 -18.9C-48.9 -42.1 -24.5 -60.4 0.8 -60.7C26.1 -61 52.2 -43.2 60.5 -18.7Z" stroke="#413b37" fill="none" stroke-width="20"></path></g></g></svg>